<?xml version="1.0" standalone="no"?>
<!DOCTYPE svg PUBLIC "-//W3C//DTD SVG 20010904//EN"
 "http://www.w3.org/TR/2001/REC-SVG-20010904/DTD/svg10.dtd">
<svg version="1.0" xmlns="http://www.w3.org/2000/svg"
 width="1080.000000pt" height="1080.000000pt" viewBox="0 0 1080.000000 1080.000000"
 preserveAspectRatio="xMidYMid meet">
<metadata>
Created by potrace 1.11, written by Peter Selinger 2001-2013
</metadata>
<g transform="translate(0.000000,1080.000000) scale(0.100000,-0.100000)"
fill="#000000" stroke="none">
<path d="M8133 8978 c-47 -27 -72 -54 -223 -248 -123 -158 -149 -204 -150
-264 0 -114 145 -248 270 -248 68 0 103 23 188 128 87 105 112 150 112 199 0
86 -81 164 -163 157 -21 -2 -19 2 41 80 47 61 67 74 88 57 16 -13 19 -55 4
-64 -5 -3 -15 -15 -20 -25 -9 -17 0 -27 66 -80 41 -33 80 -57 86 -54 18 11 58
108 58 140 0 46 -46 128 -95 168 -93 77 -186 96 -262 54z m-5 -360 c23 -23 12
-47 -64 -143 -66 -83 -80 -96 -103 -93 -17 2 -27 10 -29 23 -3 29 148 225 175
225 5 0 14 -5 21 -12z"/>
<path d="M8387 8392 c-152 -152 -277 -282 -277 -289 0 -6 19 -27 43 -46 36
-29 52 -35 107 -39 44 -4 83 -14 119 -32 l53 -28 34 33 33 32 -35 42 c-18 23
-34 50 -34 60 0 11 82 102 192 212 l192 193 -69 70 c-38 39 -72 70 -75 70 -3
0 -130 -125 -283 -278z"/>
<path d="M8891 8260 c-45 -21 -342 -253 -398 -312 -79 -83 -71 -204 23 -308
73 -81 161 -102 245 -60 46 24 344 257 391 307 84 88 75 202 -24 309 -74 81
-152 102 -237 64z m159 -165 c10 -13 9 -19 -6 -37 -36 -40 -389 -319 -412
-325 -31 -7 -50 11 -36 35 11 17 243 210 357 297 64 49 78 53 97 30z"/>
<path d="M7328 7897 c-422 -637 -877 -1089 -1351 -1341 -106 -56 -298 -136
-379 -158 l-48 -12 0 -278 c0 -153 -2 -278 -4 -278 -3 0 -40 -5 -83 -11 -369
-50 -858 -303 -1358 -702 -484 -387 -1029 -986 -1456 -1601 -81 -116 -85 -91
48 -274 506 -695 1215 -1161 2043 -1346 229 -51 379 -67 655 -73 382 -8 638
20 971 107 1092 284 1993 1121 2364 2195 240 696 246 1477 19 2182 -109 335
-269 653 -472 938 -203 285 -500 584 -783 788 l-52 37 -114 -173z m-2367
-3752 c62 -21 122 -74 151 -133 23 -46 23 -51 23 -377 0 -323 0 -331 -23 -380
-29 -63 -55 -91 -114 -121 -93 -47 -240 -49 -335 -3 -56 27 -110 91 -128 153
-22 74 -22 620 1 695 45 152 242 229 425 166z m-1010 2 c0 -1 15 -103 33 -227
32 -216 33 -223 40 -165 5 33 18 134 30 225 l21 165 75 3 c41 2 121 0 178 -3
l102 -7 0 -509 0 -509 -120 0 -120 0 -2 308 -3 307 -40 -305 -40 -305 -88 -3
c-48 -1 -87 1 -88 5 0 4 -20 141 -44 303 l-43 295 -1 -302 -1 -303 -120 0
-120 0 0 508 c0 280 2 511 4 513 4 4 345 9 347 6z m1746 -22 c64 -19 110 -56
134 -110 17 -36 19 -72 19 -385 0 -190 -5 -363 -10 -385 -11 -49 -63 -99 -117
-114 -22 -6 -135 -11 -265 -11 l-228 0 0 509 0 510 28 4 c63 10 388 -4 439
-18z m476 19 l37 -7 0 -397 c0 -219 3 -412 6 -429 6 -27 11 -32 33 -29 l26 3
3 427 2 426 73 7 c39 4 101 5 137 3 l65 -3 0 -425 c0 -469 1 -458 -65 -534
-54 -61 -100 -79 -215 -84 -85 -3 -109 -1 -158 18 -70 26 -120 68 -150 124
-22 40 -22 51 -25 468 l-3 427 83 4 c46 1 90 4 98 5 8 1 32 -1 53 -4z m826
-17 c8 -21 27 -143 52 -334 7 -51 14 -91 16 -90 1 2 14 97 28 212 14 116 27
215 29 221 3 7 63 10 177 10 l174 -1 3 -512 2 -513 -120 0 -120 0 -1 318 c-2
356 4 363 -53 -73 -14 -110 -28 -210 -31 -222 -5 -22 -10 -23 -90 -23 -47 0
-85 1 -85 3 -1 1 -20 137 -44 302 l-44 300 -1 -302 -1 -303 -120 0 -120 0 0
509 c0 477 1 510 18 514 9 2 86 4 170 4 148 1 153 0 161 -20z"/>
<path d="M4810 3980 c-13 -8 -15 -58 -18 -332 -2 -177 0 -333 3 -346 4 -18 11
-23 33 -20 24 3 28 8 35 58 4 30 7 185 5 343 -3 243 -5 289 -18 297 -19 12
-21 12 -40 0z"/>
<path d="M5506 3903 c-3 -32 -6 -181 -5 -330 0 -254 1 -273 17 -273 10 0 27 6
38 14 18 14 19 31 22 314 2 265 1 302 -13 316 -9 9 -25 16 -34 16 -15 0 -20
-11 -25 -57z"/>
<path d="M9313 7817 c-29 -18 -52 -36 -52 -42 0 -5 22 -46 49 -90 l49 -80
-212 -5 c-194 -5 -216 -7 -262 -28 -72 -33 -113 -77 -131 -139 -14 -48 -14
-58 0 -105 19 -68 64 -138 107 -169 51 -36 141 -39 205 -6 91 47 90 42 42 122
-22 39 -43 72 -45 75 -2 2 -33 -11 -68 -30 -52 -28 -68 -33 -82 -24 -28 17
-27 49 2 72 42 33 114 42 352 42 l226 0 54 31 c30 17 53 34 51 38 -10 23 -224
371 -228 371 -3 -1 -28 -15 -57 -33z"/>
<path d="M9605 7015 c-82 -35 -164 -64 -182 -64 -34 -1 -67 25 -79 61 -3 11
-11 17 -17 15 -7 -3 -41 -17 -77 -32 -144 -60 -132 -52 -118 -76 7 -12 36 -32
63 -45 31 -14 42 -23 30 -24 -49 -1 -50 -13 -10 -109 21 -50 38 -91 39 -91 1
0 136 56 301 125 195 81 299 129 297 137 -2 7 -17 48 -35 91 -20 51 -36 77
-46 76 -9 0 -83 -29 -166 -64z"/>
<path d="M9590 6688 c-168 -55 -307 -102 -309 -104 -6 -5 51 -184 60 -190 8
-4 600 184 612 195 6 6 -49 203 -56 200 -1 -1 -139 -46 -307 -101z"/>
<path d="M9183 6557 c-17 -7 -34 -15 -37 -18 -9 -9 54 -189 66 -189 6 0 28 5
50 12 36 11 38 13 32 41 -15 69 -52 162 -65 164 -8 1 -28 -4 -46 -10z"/>
<path d="M9795 6425 c-5 -2 -22 -6 -36 -9 l-27 -6 20 -92 c11 -51 21 -94 22
-94 0 -1 34 5 74 14 67 14 74 14 90 -1 15 -16 15 -18 1 -33 -20 -19 -181 -57
-189 -44 -3 5 -17 61 -30 125 -13 63 -29 115 -35 115 -5 0 -49 -11 -97 -23
-145 -39 -192 -91 -192 -212 0 -84 16 -135 57 -181 66 -76 119 -80 345 -30
165 37 209 58 242 112 67 107 11 305 -97 350 -29 13 -122 18 -148 9z m-160
-266 c10 -29 -3 -39 -62 -45 -40 -5 -51 -3 -56 9 -3 9 0 20 7 26 10 9 64 25
98 30 4 1 10 -8 13 -20z"/>
<path d="M9687 5845 c-197 -24 -360 -45 -362 -47 -3 -2 1 -49 8 -104 9 -77 15
-99 27 -97 587 66 766 87 772 92 3 3 1 50 -5 104 l-10 97 -36 -1 c-20 -1 -197
-21 -394 -44z"/>
<path d="M9874 5556 c-38 -17 -66 -51 -100 -125 -14 -31 -37 -71 -51 -89 -22
-29 -29 -33 -66 -30 -37 3 -42 6 -42 28 0 23 4 25 48 28 l47 3 0 90 0 89 -54
0 c-110 0 -161 -68 -161 -215 0 -151 47 -205 179 -205 116 0 143 23 239 200
l28 51 52 -3 c45 -3 52 -6 55 -25 4 -24 -11 -31 -83 -35 -25 -2 -40 -8 -39
-15 1 -7 2 -47 3 -88 l1 -75 53 0 c126 1 182 68 182 220 0 150 -55 210 -190
210 -38 -1 -84 -7 -101 -14z"/>
<path d="M9584 5031 c-71 -33 -114 -117 -114 -224 0 -71 27 -137 68 -165 45
-32 89 -41 256 -58 191 -19 229 -13 287 45 65 65 89 202 50 288 -25 54 -88
100 -149 108 -26 4 -59 9 -74 11 l-26 5 -8 -93 c-4 -51 -7 -95 -8 -98 -1 -3
30 -8 68 -12 73 -7 103 -25 92 -53 -5 -15 -17 -16 -99 -10 -50 4 -95 10 -99
14 -4 4 -2 59 4 124 6 64 8 120 4 124 -4 5 -53 9 -109 11 -83 2 -110 -1 -143
-17z m89 -177 c31 -6 37 -11 37 -32 0 -24 -2 -24 -51 -20 -55 6 -75 18 -66 42
7 17 22 19 80 10z"/>
<path d="M9436 4505 c-24 -98 -24 -98 54 -144 39 -23 70 -43 70 -45 0 -1 -64
12 -142 30 -79 18 -146 33 -150 34 -7 0 -53 -188 -47 -194 4 -4 756 -176 769
-176 4 0 16 35 25 78 9 42 19 86 21 97 5 19 -5 23 -108 45 l-113 25 120 5 120
5 21 94 22 93 -207 -7 -206 -6 -112 65 c-62 36 -115 66 -117 66 -2 0 -11 -29
-20 -65z"/>
<path d="M9166 4035 c-16 -53 -27 -97 -25 -99 6 -6 734 -246 745 -246 9 0 70
187 63 194 -4 4 -741 246 -749 246 -3 0 -19 -43 -34 -95z"/>
<path d="M9227 3778 c-30 -68 -34 -85 -22 -93 7 -6 86 -49 174 -95 89 -46 160
-84 158 -86 -1 -2 -86 19 -187 47 -102 27 -189 48 -193 46 -5 -1 -22 -34 -39
-72 -17 -39 -34 -74 -38 -78 -4 -5 -33 6 -63 23 -31 17 -61 29 -66 26 -11 -7
-175 -296 -170 -300 14 -11 683 -386 689 -386 5 0 25 30 46 68 20 37 43 76 51
88 12 19 5 24 -132 103 -80 45 -145 84 -145 86 0 2 14 27 30 56 17 28 30 52
28 54 -2 1 -33 18 -69 38 l-65 37 -24 -43 c-39 -70 -37 -70 -89 -40 -78 44
-78 44 -41 110 18 32 34 59 35 61 2 3 551 -113 589 -125 15 -4 17 -12 12 -42
-5 -35 -4 -38 30 -54 19 -9 41 -17 48 -17 13 0 51 75 81 160 31 87 11 144 -67
198 -24 16 -137 84 -253 151 -115 68 -224 131 -241 142 l-32 19 -35 -82z"/>
<path d="M2148 2562 l-296 -267 20 -25 c48 -61 225 -245 253 -261 60 -38 108
-21 217 74 82 71 102 106 95 168 -6 46 -5 49 13 39 50 -27 112 0 180 77 47 54
65 108 51 158 -14 52 -42 89 -181 242 l-56 62 -296 -267z m351 -6 c16 -19 3
-42 -49 -89 -44 -41 -61 -45 -81 -21 -11 14 -6 23 43 70 60 58 69 62 87 40z
m-223 -213 c6 -24 0 -34 -56 -85 -34 -32 -68 -58 -74 -58 -7 0 -21 7 -32 15
-18 13 -15 17 56 84 41 39 81 70 87 71 7 0 16 -12 19 -27z"/>
<path d="M8644 2751 c-23 -10 -53 -34 -68 -53 -30 -41 -62 -127 -71 -195 -12
-95 -10 -93 -52 -81 -20 5 -71 8 -113 6 -92 -4 -139 -30 -171 -96 -59 -119
-18 -226 111 -292 57 -29 189 -65 315 -85 92 -15 135 -28 209 -63 4 -3 5 13 2
34 -5 26 0 64 14 114 80 290 92 345 93 450 2 124 -15 182 -68 229 -59 51 -132
63 -201 32z"/>
<path d="M2540 2133 c-189 -224 -210 -254 -210 -305 0 -70 106 -154 166 -131
18 6 18 6 1 -14 -18 -20 -17 -22 59 -84 42 -35 79 -63 81 -62 3 1 99 112 214
248 l209 246 -76 65 c-74 63 -78 65 -94 47 -9 -10 -83 -97 -165 -193 -169
-200 -173 -204 -192 -189 -7 6 -13 17 -13 23 0 6 76 101 170 211 93 110 169
202 169 205 0 5 -106 95 -137 117 -15 10 -40 -16 -182 -184z"/>
<path d="M7595 1995 c-38 -25 -74 -46 -79 -48 -6 -2 11 -38 37 -80 l47 -77
-39 0 c-88 0 -171 -80 -157 -154 8 -40 215 -388 259 -433 17 -18 45 -36 63
-39 65 -12 138 33 164 100 10 26 12 27 23 12 12 -17 19 -14 90 29 42 25 79 50
82 56 8 12 -396 679 -410 678 -5 0 -41 -20 -80 -44z m153 -451 c100 -165 115
-205 80 -212 -12 -2 -42 40 -111 155 -125 208 -121 201 -106 219 7 8 17 13 23
11 6 -2 57 -79 114 -173z"/>
<path d="M3094 1936 c-34 -15 -86 -73 -109 -122 -26 -56 -19 -101 35 -213 l49
-104 -21 -38 c-25 -45 -40 -52 -65 -34 -17 13 -17 16 10 63 15 28 27 52 27 55
0 13 -143 98 -151 90 -4 -4 -19 -30 -33 -57 -43 -82 -31 -150 40 -218 60 -57
128 -88 190 -88 48 0 58 4 95 37 22 20 52 56 66 81 41 69 36 109 -27 230 l-54
103 18 34 c22 40 44 51 64 31 13 -13 12 -19 -7 -51 -11 -20 -21 -40 -21 -44 0
-4 32 -29 71 -55 80 -53 74 -55 114 29 21 44 23 55 13 93 -27 109 -214 218
-304 178z"/>
<path d="M3401 1505 c-96 -195 -172 -357 -170 -359 5 -5 167 -86 172 -86 1 0
27 49 57 110 30 60 55 108 56 107 2 -1 -10 -54 -26 -117 -16 -63 -30 -118 -30
-122 0 -8 153 -88 168 -88 4 0 25 89 46 198 l39 197 95 99 96 99 -75 38 -74
37 -68 -66 -69 -67 72 144 c39 79 70 144 68 146 -8 7 -169 85 -175 85 -5 0
-86 -160 -182 -355z"/>
<path d="M6673 1670 c-50 -21 -72 -105 -40 -154 21 -31 69 -50 110 -42 82 15
110 124 47 181 -22 20 -86 29 -117 15z m77 -75 c20 -24 3 -55 -30 -55 -20 0
-31 6 -35 20 -8 25 10 50 35 50 10 0 23 -7 30 -15z"/>
<path d="M7292 1657 c-12 -13 -28 -40 -35 -62 l-14 -39 -11 32 c-11 32 -11 33
-44 18 -68 -29 -148 -68 -148 -71 0 -4 270 -589 273 -592 5 -5 177 81 177 89
0 5 -31 77 -70 161 -38 84 -72 167 -76 183 -6 30 7 49 58 87 16 11 14 20 -30
115 -25 56 -49 102 -52 102 -4 0 -16 -10 -28 -23z"/>
<path d="M3990 1469 c-36 -14 -69 -48 -92 -93 -37 -72 -118 -320 -118 -361 1
-90 58 -158 164 -195 128 -45 228 -6 277 108 39 90 41 86 -59 120 l-90 30 -22
-62 c-12 -33 -27 -67 -32 -73 -14 -17 -45 -17 -51 0 -7 18 46 180 61 185 6 2
57 -13 112 -32 56 -20 107 -36 115 -36 19 0 65 147 65 206 0 59 -19 103 -63
141 -68 59 -197 89 -267 62z m146 -134 c3 -8 -2 -37 -11 -64 -15 -45 -18 -49
-38 -42 -25 10 -25 28 -2 84 16 38 41 49 51 22z"/>
<path d="M6226 1459 c-72 -12 -136 -49 -171 -98 -27 -38 -30 -51 -29 -109 2
-72 65 -413 90 -484 49 -139 228 -184 316 -79 27 31 27 31 41 10 14 -19 18
-20 76 -8 43 8 61 16 61 27 0 16 -68 379 -75 398 -2 8 -38 5 -121 -12 -65 -13
-118 -25 -120 -27 -1 -1 3 -28 9 -59 9 -50 13 -58 33 -58 20 0 24 -8 34 -68 7
-37 11 -76 9 -87 -5 -22 -36 -32 -50 -18 -12 12 -99 452 -99 499 0 27 4 34 20
34 25 0 35 -20 50 -97 7 -35 18 -63 24 -62 6 0 52 8 101 18 90 18 90 18 87 47
-6 58 -33 133 -58 164 -50 59 -134 85 -228 69z"/>
<path d="M6797 1460 c-67 -17 -136 -59 -167 -102 -35 -48 -40 -106 -14 -186
l16 -50 86 29 c47 16 86 30 88 32 2 1 -6 32 -17 67 -20 66 -16 85 17 78 12 -2
26 -22 38 -57 l20 -54 -86 -81 c-54 -51 -89 -92 -94 -110 -10 -42 40 -191 77
-228 53 -54 176 -29 211 42 11 21 18 28 18 17 0 -29 21 -29 110 1 57 20 84 34
82 43 -8 45 -164 477 -179 498 -46 61 -118 82 -206 61z m134 -437 c29 -84 24
-122 -14 -107 -18 7 -47 85 -47 126 0 16 6 37 12 48 15 24 20 17 49 -67z"/>
<path d="M5639 1373 l-75 -4 4 -84 c3 -47 3 -85 0 -85 -2 0 -21 9 -43 20 -75
38 -164 15 -197 -51 -15 -29 -18 -62 -17 -229 1 -262 7 -302 47 -343 29 -29
38 -32 91 -32 46 0 66 5 90 23 37 27 41 27 41 2 0 -19 7 -20 101 -20 l101 0
-7 398 c-4 218 -9 400 -12 405 -2 4 -14 6 -26 5 -12 -1 -56 -4 -98 -5z m-74
-473 c0 -208 -1 -215 -20 -215 -19 0 -20 9 -27 195 -9 223 -7 243 25 238 22
-3 22 -4 22 -218z"/>
<path d="M4435 1348 c-2 -7 -34 -143 -70 -303 -36 -159 -68 -297 -71 -306 -4
-14 10 -20 73 -34 43 -9 88 -19 99 -22 21 -4 24 4 54 134 60 263 60 263 139
263 38 0 41 2 50 38 26 97 41 175 35 183 -7 12 -51 1 -92 -22 l-34 -19 7 29 6
29 -91 21 c-108 25 -100 24 -105 9z"/>
<path d="M4786 1269 c-9 -29 -56 -477 -56 -530 0 -43 5 -63 22 -84 43 -54 127
-70 186 -35 31 19 32 19 32 1 0 -22 16 -27 121 -36 l77 -7 6 38 c11 72 66 557
66 584 0 30 2 29 -141 46 l-55 6 -29 -249 c-15 -136 -32 -258 -36 -270 -10
-26 -37 -31 -45 -8 -5 12 35 404 51 501 l5 32 -57 6 c-32 4 -77 9 -100 13 -31
4 -44 2 -47 -8z"/>
</g>
</svg>
