<svg xmlns="http://www.w3.org/2000/svg" width="237" height="42" viewBox="0 0 237 42">
  <g fill="none" fill-rule="evenodd">
    <polygon fill="#008D44" points="43.615 41.192 84 41.192 84 .808 43.615 .808"/>
    <path fill="#FFE400" d="M63.3200208,38.4980059 C53.7761538,38.4980059 46.0384615,30.7844689 46.0384615,21.2684514 C46.0384615,11.7533044 53.7761538,4.03846154 63.3200208,4.03846154 C72.8647609,4.03846154 80.6024532,11.7533044 80.6024532,21.2684514 C80.6024532,30.7844689 72.8647609,38.4980059 63.3200208,38.4980059 Z"/>
    <polygon fill="#008D44" points="60.264 18.223 55.755 18.223 55.755 20.4 60.216 20.4 60.216 22.579 55.734 22.579 55.734 26.549 52.968 26.549 52.968 16.061 60.264 16.061"/>
    <path fill="#008D44" d="M70.0948565,23.0261543 L70.0948565,26.5497186 L67.3923617,26.5497186 L67.3923617,16.0608578 L70.065605,16.0608578 C70.0808857,17.1725543 70.065605,18.2764158 70.065605,19.3807126 C70.9619252,18.3769647 71.6521746,17.1098745 72.4589938,16.0608578 L75.0588898,16.0608578 C74.347684,17.2970434 73.4648981,18.5153827 72.6432349,19.6579838 L75.1553763,26.5497186 L72.3179751,26.5497186 C71.8054179,25.1585745 71.2378503,23.4718776 70.7270395,22.0842157 L70.0948565,23.0261543"/>
    <path fill="#008D44" d="M79.0645049,24.7622879 C78.9950871,25.1096387 78.6493074,25.3220537 78.2707835,25.3333709 C78.3244841,25.2032232 78.3720725,25.0909218 78.403507,25.012572 C78.6392659,24.4467124 77.9367918,24.1293957 77.708455,24.6856792 C77.6709083,24.7762168 77.6163345,24.9063645 77.5543386,25.0547938 C77.3709706,24.8793773 77.2583303,24.6565157 77.2998064,24.4497593 C77.4630912,23.6188162 77.4565424,23.6527678 77.5757315,23.0607916 C77.6228833,22.8274833 77.8031952,22.6329147 78.055981,22.5362833 L78.055981,22.8605644 C78.055981,23.5047738 78.8252534,23.4764808 78.8252534,22.8945159 L78.8252534,22.5776346 C79.1981016,22.7517452 79.3902014,23.0964843 79.3295153,23.4072718 L79.3382471,23.3746261 C79.20727,24.047999 79.1596817,24.2643315 79.0645049,24.7622879 L79.0645049,24.7622879 Z M77.2404301,29.1150542 L77.264006,29.0885023 C76.8828625,29.6600205 76.759744,29.8454483 76.4759602,30.2667961 C76.2812409,30.5606078 75.8804509,30.625464 75.5272492,30.49314 C75.6263552,30.3930263 75.7132367,30.3068416 75.772613,30.2476439 C76.2065839,29.8132379 75.6787461,29.251731 75.2552534,29.6787374 C75.1853989,29.7479464 75.0849831,29.84806 74.9701598,29.9621025 C74.8679977,29.7301 74.8492243,29.4811218 74.9675403,29.3057053 C75.4408043,28.6009925 75.4202846,28.6305913 75.755586,28.1261057 C75.8878729,27.9293606 76.1306172,27.8196709 76.402613,27.8262001 C76.349349,27.9528656 76.3061266,28.0595084 76.2794945,28.1239293 C76.0310746,28.7215641 76.750139,28.9914356 76.9728002,28.4525631 C77.0068542,28.3702959 77.0500767,28.2662647 77.0959187,28.1587514 C77.3748999,28.4612687 77.4172492,28.8525824 77.2404301,29.1150542 L77.2404301,29.1150542 Z M73.15569,33.5801218 C72.581137,33.9592477 72.3986422,34.0846074 71.9760226,34.3657961 C71.6804509,34.5625411 71.2875195,34.4698272 71.0115943,34.2112729 C71.1412617,34.1572986 71.2530288,34.1120298 71.3307419,34.079384 C71.8991827,33.841723 71.630243,33.1261282 71.0696609,33.3572601 C70.9788501,33.3946939 70.8491827,33.4482329 70.6998688,33.5100422 C70.6950663,33.256276 70.7736525,33.0190502 70.9495985,32.9002197 C71.6529457,32.431862 71.6276234,32.4497084 72.130139,32.1162865 C72.3274779,31.9843977 72.5933615,31.9743863 72.8426546,32.0836407 C72.745295,32.1811427 72.6636525,32.2625394 72.6138812,32.3112904 C72.1563345,32.7665898 72.7182264,33.2906628 73.1312409,32.8788911 C73.1941099,32.8170818 73.2731328,32.7374262 73.356085,32.6542884 C73.4966671,33.0416846 73.3875195,33.4190694 73.124692,33.5949212 L73.15569,33.5801218 Z M67.5992035,36.1600063 L67.6332575,36.1582652 C66.9595985,36.2932009 66.742613,36.3354228 66.2431536,36.4346659 C65.8947544,36.5034396 65.5664384,36.2692607 65.4114488,35.9240864 L65.7585382,35.9240864 C66.3715112,35.9240864 66.3990164,35.1562584 65.7930288,35.1562584 L65.3935486,35.1562584 C65.4852326,34.9220796 65.6485174,34.7318637 65.8558979,34.6926888 C66.6889124,34.5251073 66.6561681,34.5316365 67.2499311,34.4162882 C67.483507,34.3705841 67.7328002,34.4615569 67.920534,34.6587372 C67.792613,34.7105351 67.6865216,34.7544981 67.6214696,34.7823558 C67.0233407,35.0278518 67.3403054,35.7242944 67.8816775,35.5027386 C67.9637565,35.468787 68.067665,35.4265652 68.1750663,35.3808611 C68.1580392,35.7908917 67.9118022,36.0999381 67.5992035,36.1600063 L67.5992035,36.1600063 Z M61.511823,36.4250898 L61.5454405,36.4346659 C60.8678521,36.3014712 60.652613,36.2609905 60.152717,36.1600063 C59.8034446,36.0916679 59.5908251,35.7469288 59.5790372,35.3712851 C59.7095777,35.4248241 59.822218,35.4705281 59.9003677,35.5027386 C60.4674987,35.7369174 60.7857731,35.039169 60.2282471,34.8084724 C60.1378729,34.7710386 60.0073324,34.7170643 59.8588916,34.655255 C60.034401,34.4733094 60.2579353,34.361008 60.4657523,34.4014887 C61.2970205,34.5673291 61.2642762,34.5608 61.8584758,34.6765836 C62.0911785,34.7235934 62.2850247,34.9042332 62.3832575,35.1562584 L62.0614904,35.1562584 C61.4122804,35.1562584 61.4397856,35.9223453 62.0239436,35.9223453 L62.342218,35.9223453 C62.1675819,36.2949421 61.8226754,36.4886402 61.511823,36.4250898 L61.511823,36.4250898 Z M55.7841931,34.3462086 L55.8116983,34.3705841 C55.2375819,33.9884112 55.0537773,33.8647927 54.6289748,33.583604 C54.3329665,33.3851178 54.2683511,32.9877103 54.4028209,32.6333951 C54.5032367,32.733944 54.5896817,32.8205641 54.6494945,32.8788911 C55.0847752,33.3115561 55.6471037,32.7896594 55.2188085,32.3617825 C55.1493906,32.2934441 55.0489748,32.194201 54.9354613,32.0801585 C55.168164,31.9778685 55.4183303,31.9600222 55.5938397,32.0753705 C56.2993698,32.5472103 56.2718646,32.529364 56.7752534,32.864527 C56.9725923,32.9964158 57.082613,33.2366885 57.0760642,33.5069953 C56.9498896,33.4547621 56.8437981,33.4107992 56.7787461,33.3833767 C56.1801806,33.1374454 55.9103677,33.8565224 56.4491203,34.079384 C56.5311993,34.1137709 56.6346713,34.1559927 56.7433823,34.2016968 C56.4399519,34.4763563 56.0474571,34.5220604 55.7841931,34.3462086 L55.7841931,34.3462086 Z M51.2903677,30.2385031 L51.306085,30.2720194 C50.9227586,29.7000659 50.8005133,29.5163792 50.5162929,29.0932903 C50.3207004,28.7994786 50.4136941,28.4077297 50.6730288,28.1326348 C50.7267295,28.2623473 50.7734446,28.3750839 50.8057523,28.4525631 C51.0423844,29.0175522 51.7614488,28.7476807 51.5322388,28.1913972 C51.494692,28.1008596 51.4409914,27.9715825 51.378559,27.8227179 C51.6317814,27.8179298 51.8684135,27.8967149 51.9871661,28.0725667 C52.4582471,28.7768442 52.4377274,28.7459396 52.773902,29.2486841 C52.9066255,29.4462997 52.9162305,29.7105126 52.8079561,29.9577497 C52.7101598,29.8611183 52.6285174,29.7797216 52.5787461,29.7301 C52.1211993,29.2756712 51.5972908,29.8358723 52.008559,30.2459028 L52.2342762,30.4709408 C51.8461473,30.6115352 51.4667503,30.502716 51.2903677,30.2385031 L51.2903677,30.2385031 Z M48.7175403,24.7305127 L48.7184135,24.767076 C48.5839436,24.0928325 48.5411577,23.8756295 48.4416151,23.3785436 C48.373507,23.0320634 48.6092659,22.7043001 48.9541723,22.5497769 L48.9541723,22.8945159 C48.9541723,23.508256 49.7225715,23.5339373 49.7225715,22.9319497 L49.7225715,22.5319305 C49.9600767,22.6237739 50.1508667,22.7874379 50.1927794,22.9955001 C50.3556276,23.8238315 50.3508251,23.7920563 50.4691411,24.3814209 C50.5145465,24.616035 50.4224259,24.8645779 50.2250871,25.0517469 C50.1722596,24.9250814 50.128164,24.8193092 50.1010954,24.7540177 C49.8539852,24.1572534 49.1550039,24.4741348 49.3767918,25.0112662 C49.4112825,25.0930982 49.4540683,25.1975646 49.4990372,25.3055132 C49.087769,25.2876668 48.7786629,25.0421708 48.7175403,24.7305127 L48.7175403,24.7305127 Z M48.4516567,18.6605802 L48.4403054,18.6954024 C48.5756484,18.0194178 48.6171245,17.8048264 48.7184135,17.3055641 C48.786085,16.9590839 49.1309914,16.7475395 49.5090787,16.7362223 C49.4549415,16.8654994 49.4086629,16.9778008 49.3767918,17.0548448 C49.141033,17.6193986 49.8417607,17.9384563 50.0753365,17.380867 C50.1128833,17.2907647 50.1665839,17.1614875 50.2277066,17.0126229 C50.4110746,17.1876041 50.5237149,17.4104658 50.4822388,17.6176574 C50.3150247,18.4472947 50.3224467,18.4163901 50.2045673,19.0061899 C50.1582887,19.2390629 49.9766671,19.4340668 49.7225715,19.5306982 L49.7225715,19.2094641 C49.7225715,18.5643841 48.9541723,18.5887596 48.9541723,19.1711597 L48.9541723,19.4893469 C48.5804509,19.3169774 48.3896609,18.9713677 48.4516567,18.6605802 L48.4516567,18.6605802 Z M50.5394322,12.9510568 L50.5136733,12.9802203 C50.8991827,12.4060904 51.0196817,12.2219684 51.3021557,11.8010559 C51.5003677,11.5072442 51.8985382,11.4410822 52.2530496,11.5747121 L52.008559,11.8189023 C51.5745881,12.2537436 52.0998064,12.8143799 52.5281016,12.3882441 C52.5975195,12.3190351 52.6970621,12.219792 52.8105756,12.1057496 C52.9123012,12.337752 52.9310746,12.5854244 52.8127586,12.7612762 C52.3421141,13.4646832 52.3600143,13.4372608 52.0247128,13.9391347 C51.8928625,14.1376208 51.6505548,14.2481811 51.3776858,14.2407814 C51.4300767,14.1141159 51.4741723,14.0083437 51.5012409,13.9430522 C51.750534,13.3475938 51.0305964,13.0785928 50.8057523,13.6152889 C50.7716983,13.6975562 50.729349,13.8007167 50.6843802,13.9082301 C50.4062721,13.6065834 50.3621765,13.2143991 50.5394322,12.9510568 L50.5394322,12.9510568 Z M54.3849207,10.5361421 C54.9603469,10.8913278 55.6781016,10.8573762 56.0483303,10.6092685 C56.6220101,10.2292721 56.8036318,10.1056535 57.2262513,9.82272369 C57.7003885,9.50888924 58.0064384,8.89645503 57.8667295,8.23439929 C58.2862929,8.06202975 58.7355444,7.87660191 59.1385174,7.71032624 C59.5336318,8.25703368 60.2072908,8.4986122 60.6460642,8.41416854 C61.3205964,8.27749168 61.5375819,8.23526984 62.0361681,8.13602677 C62.5967503,8.02503124 63.1141099,7.57408465 63.2394114,6.90941725 L64.6142347,6.90941725 C64.7683511,7.56668495 65.3001182,8.04940673 65.7375819,8.13776788 C66.4147336,8.27096253 66.6325923,8.31231381 67.1311785,8.41416854 C67.6913241,8.5247288 68.3414072,8.30578466 68.7111993,7.73905449 C69.1303261,7.91229459 69.5800143,8.09859299 69.9812409,8.26443338 C69.8720933,8.92910078 70.1781432,9.57548657 70.5483719,9.82098258 C71.1211785,10.2035907 71.3062929,10.3254682 71.7280392,10.6075274 C72.202613,10.9239735 72.8863137,10.9701129 73.447769,10.5888105 C73.7682264,10.9087389 74.1126962,11.2508663 74.4200559,11.5577363 C74.0633615,12.1301251 74.0987253,12.8461551 74.3458355,13.2161402 C74.7282887,13.7854821 74.8518438,13.9709099 75.1321349,14.3922577 C75.4504093,14.8636623 76.0655652,15.1674853 76.7304925,15.0290674 C76.9033823,15.4469329 77.090243,15.8952679 77.2565839,16.2961576 C76.7077898,16.6892124 76.4637357,17.3630206 76.5501806,17.7982972 C76.6837773,18.4716702 76.7304925,18.6906143 76.8261058,19.1877002 C76.9374363,19.7439838 77.3888708,20.2593513 78.055981,20.3847109 L78.055981,21.7562676 C77.399349,21.9099202 76.91648,22.4392166 76.8300351,22.8753638 C76.694692,23.5487367 76.6505964,23.7650692 76.5501806,24.2643315 C76.4401598,24.820615 76.658455,25.4691772 77.2273324,25.8391623 C77.0535694,26.2570279 76.8675819,26.7062333 76.7008043,27.1071231 C76.0336941,26.9983039 75.3844841,27.3029976 75.1360642,27.6725474 C74.753611,28.2427598 74.6313656,28.4268818 74.3475819,28.8486649 C74.0310538,29.3200695 73.9852118,30.0025832 74.3681016,30.5623489 C74.0463345,30.881842 73.7031744,31.22484 73.3953781,31.5321452 C72.8212617,31.1756537 72.1039436,31.2100405 71.7337149,31.4590188 C71.1600351,31.8377094 70.9775403,31.9617633 70.5531744,32.242952 C70.0799103,32.5602686 69.774297,33.1735734 69.9126962,33.833888 C69.4935694,34.0062576 69.0438812,34.1934265 68.6426546,34.3592669 C68.2488501,33.8112536 67.5721349,33.5688046 67.1351078,33.6567304 C66.4610122,33.7899251 66.2431536,33.8321469 65.7441307,33.93139 C65.1835486,34.0436914 64.6679353,34.4924616 64.5417607,35.1562584 L63.1660642,35.1562584 C63.0110746,34.5007318 62.4801806,34.0193159 62.0435902,33.9331311 C61.369058,33.7995012 61.1520725,33.7559735 60.652613,33.6580363 C60.0920309,33.547476 59.4428209,33.7655496 59.0717191,34.3314092 C58.6525923,34.1572986 58.2029041,33.972306 57.8008043,33.8060303 C57.9099519,33.1422335 57.603902,32.4949771 57.2328002,32.24774 C56.6595569,31.863826 56.4757523,31.7419486 56.0531328,31.4607599 C55.5794322,31.1451843 54.8939852,31.0977392 54.3329665,31.4799121 C54.0129457,31.1595485 53.6689124,30.817421 53.3611162,30.5109863 C53.717374,29.9385975 53.6833199,29.223438 53.4362097,28.8534529 C53.0524467,28.28237 52.9280185,28.0986832 52.6472908,27.6773355 C52.3290164,27.202884 51.7147336,26.8990609 51.0515528,27.0379141 C50.8777898,26.6200486 50.6918022,26.1717136 50.5245881,25.7708239 C51.0738189,25.3782044 51.3165632,24.7043961 51.2296817,24.2695548 C51.0956484,23.5957466 51.0524259,23.3785436 50.951137,22.8818929 C50.840243,22.3238683 50.3901182,21.8071949 49.7225715,21.6822706 L49.7225715,20.3115845 C50.3809498,20.1588024 50.8638189,19.6286354 50.951137,19.1933588 C51.0860434,18.5191153 51.1283927,18.3027829 51.2279353,17.8048264 C51.3388293,17.2468018 51.1192243,16.5986749 50.5529665,16.2286897 C50.7267295,15.8108242 50.9131536,15.3624893 51.079058,14.9615995 C51.7457315,15.0712892 52.3953781,14.7670308 52.6416151,14.3970457 C53.0266879,13.8259628 53.1471869,13.6422761 53.4322804,13.2191872 C53.7470621,12.746912 53.7950871,12.0643983 53.4126338,11.5055031 C53.7330912,11.1860101 54.0775611,10.8425768 54.3849207,10.5361421 L54.3849207,10.5361421 Z M54.6556068,8.47423671 L54.6246089,8.48903612 C55.1952326,8.10642796 55.3825299,7.98542106 55.8042762,7.70336181 C56.099848,7.50487567 56.4936525,7.59889542 56.7695777,7.85788501 C56.6399103,7.91142404 56.5263968,7.95886919 56.4491203,7.99020911 C55.8811162,8.22525848 56.1513656,8.94259436 56.7088916,8.71233302 C56.7997024,8.67533451 56.9311162,8.62092493 57.0804301,8.55868038 C57.0861058,8.81157609 57.0075195,9.04923713 56.8324467,9.16545599 C56.1256068,9.63642529 56.1526754,9.6177084 55.6501598,9.95113029 C55.4519478,10.0830191 55.1869374,10.0934657 54.938954,9.98464659 C55.0358771,9.88801518 55.1166463,9.80748901 55.1664176,9.75786747 C55.624401,9.30082702 55.0620725,8.77849507 54.6494945,9.18983148 C54.5866255,9.25251131 54.5062929,9.33129638 54.4242139,9.41356366 C54.2827586,9.02834385 54.3914696,8.64965319 54.6556068,8.47423671 L54.6556068,8.47423671 Z M60.1802222,5.90566936 L60.1435486,5.90741047 C60.8215735,5.77378054 61.038559,5.73329982 61.5375819,5.63231564 C61.885981,5.56354193 62.2156068,5.79989714 62.3701598,6.1450715 L62.0239436,6.1450715 C61.4066047,6.1450715 61.3812825,6.90941725 61.9846505,6.90941725 L62.38806,6.90941725 C62.296376,7.14533718 62.1335278,7.33555307 61.924401,7.37690434 C61.0913864,7.54056835 61.1232575,7.53403921 60.5321141,7.65286972 C60.2985382,7.69900905 60.0488085,7.60803623 59.8615112,7.41216175 C59.988559,7.359058 60.0955236,7.31509506 60.1610122,7.28810791 C60.7569582,7.03956496 60.4386837,6.34094598 59.9003677,6.565984 C59.8182887,6.60037085 59.713507,6.64259268 59.6052326,6.68742617 C59.6231328,6.27652504 59.870243,5.96834919 60.1802222,5.90566936 L60.1802222,5.90566936 Z M66.2719686,5.64537394 L66.2392243,5.63231564 C66.9128833,5.76725139 67.1311785,5.81034378 67.6293282,5.90958685 C67.9768542,5.97749 68.1907835,6.32222909 68.2021349,6.69961392 C68.0724675,6.64563962 67.9607004,6.5995003 67.8829873,6.5677251 C67.3154197,6.33093462 66.9953989,7.0295536 67.5533615,7.25937966 C67.6441723,7.29681345 67.775586,7.35122302 67.9244634,7.4130323 C67.7493906,7.59584849 67.5258563,7.70902041 67.3176027,7.66766913 C66.4841515,7.50313457 66.5182056,7.50966371 65.9244426,7.3925743 C65.6904301,7.34512915 65.494401,7.16405408 65.3974779,6.90941725 L65.7196817,6.90941725 C66.3667087,6.90941725 66.341823,6.1450715 65.7585382,6.1450715 L65.4407004,6.1450715 C65.6144634,5.77247471 65.960243,5.58225883 66.2719686,5.64537394 L66.2719686,5.64537394 Z M71.9965424,7.72425509 L71.9716567,7.70162071 C72.5444634,8.08205247 72.7265216,8.20480048 73.1508875,8.48729501 C73.4460226,8.68404004 73.5115112,9.08275343 73.3766047,9.43576277 L73.1321141,9.19157259 C72.6963968,8.75890762 72.1340683,9.28123957 72.5614904,9.70737538 C72.6309083,9.77571381 72.7304509,9.87539216 72.8448376,9.98856408 C72.6130081,10.0904188 72.3632783,10.1082652 72.1873324,9.99030519 C71.4813656,9.52325337 71.5093074,9.54153499 71.0054821,9.20637199 C70.8077066,9.07448317 70.6976858,8.83290465 70.7042347,8.56303314 C70.8304093,8.61483106 70.9365008,8.658794 71.0019893,8.68578115 C71.5996817,8.93214772 71.8716775,8.21481184 71.3324883,7.99195021 C71.2499727,7.95799864 71.1456276,7.91447097 71.0377898,7.87007276 C71.3403469,7.591931 71.7319686,7.54883861 71.9965424,7.72425509 L71.9965424,7.72425509 Z M76.4921141,11.8267373 L76.4759602,11.7975737 C76.8566671,12.3695272 76.9784758,12.5514728 77.2609498,12.9719501 C77.4595985,13.2661971 77.3666047,13.6601224 77.10727,13.9343467 C77.0544426,13.8059401 77.0077274,13.694074 76.9758563,13.61703 C76.7400975,13.0502998 76.0166671,13.3184302 76.2498064,13.8747138 C76.2873532,13.9652513 76.341927,14.0962696 76.4039228,14.2455695 C76.1502638,14.2516633 75.912322,14.1733135 75.7953157,13.9978971 C75.3216151,13.2931842 75.3412617,13.3201714 75.0050871,12.819168 C74.8728002,12.6224229 74.8627586,12.3569042 74.973216,12.1092318 C75.070139,12.2058632 75.1517814,12.2872599 75.2015528,12.3368815 C75.6595361,12.7947925 76.1838812,12.2332856 75.772613,11.8228198 C75.7088708,11.7592694 75.6289748,11.6796138 75.5451494,11.5964759 C75.9328417,11.455011 76.315295,11.5642655 76.4921141,11.8267373 L76.4921141,11.8267373 Z M79.0645049,17.3347276 L79.0605756,17.3007761 C79.1959187,17.9750196 79.2395777,18.1904815 79.3382471,18.6906143 C79.4081016,19.036224 79.1705964,19.3639873 78.8252534,19.5176399 L78.8252534,19.1729008 C78.8252534,18.5595961 78.055981,18.5334795 78.055981,19.1363376 L78.055981,19.5359215 C77.8202222,19.4445134 77.6311785,19.2812847 77.5897024,19.0736578 C77.4229249,18.2440205 77.4294738,18.2775368 77.3137773,17.68469 C77.2653157,17.4518171 77.3587461,17.2037094 77.5552118,17.0169757 C77.6084758,17.1436412 77.6512617,17.250284 77.6783303,17.3151402 C77.9271869,17.9123397 78.6266047,17.593282 78.403507,17.0565859 C78.369453,16.9743186 78.3262305,16.8702875 78.2812617,16.7623389 C78.6938397,16.7801852 79.0033823,17.0265518 79.0645049,17.3347276 L79.0645049,17.3347276 Z M78.8252534,21.7641026 L78.8252534,20.3555474 C79.8067087,20.1222391 80.2472284,19.3039191 80.1018438,18.5770071 C79.9324467,17.7447582 79.9398688,17.7804509 79.8232991,17.1867336 C79.7001806,16.5651586 78.9378937,15.8578341 77.9695361,16.0114867 C77.7931536,15.5862215 77.6014904,15.1256988 77.4286006,14.7082685 C78.2454613,14.1180334 78.3358355,13.1948117 77.9232575,12.5793305 C77.4534862,11.8759235 77.4705133,11.9016048 77.1343386,11.401472 C76.781137,10.8760931 75.803611,10.5100255 74.9692866,11.0223461 C74.642717,10.6976297 74.2895153,10.3454909 73.9699311,10.027739 C74.4986422,9.16980875 74.2283927,8.28227972 73.6093074,7.87137859 C72.9042139,7.39997401 72.9321557,7.41999673 72.4270205,7.08526901 C71.9000559,6.73225967 70.8583511,6.76795235 70.2837981,7.5584147 C69.8572492,7.38256294 69.3948999,7.1914765 68.9762097,7.01823641 C69.1338189,6.02624098 68.5448584,5.30977566 67.8170621,5.16613438 C66.9840476,4.99898815 67.017665,5.00595258 66.4243386,4.88755734 C65.7995777,4.76567988 64.8517399,5.19660374 64.6220933,6.1450715 L63.2084135,6.1450715 C62.972218,5.16700493 62.1523012,4.72737554 61.4253781,4.87362849 C60.5932367,5.03859833 60.6242347,5.03206918 60.0326546,5.14915859 C59.4061473,5.27234187 58.6949415,6.03581707 58.8499311,6.99864896 C58.4238189,7.17450072 57.9623428,7.36558715 57.5445257,7.5379567 C56.9525091,6.72485996 56.025191,6.63127549 55.4087253,7.04348245 C54.702322,7.51445176 54.7298272,7.49660542 54.2281848,7.83176842 C53.698164,8.1839072 53.3340476,9.15718573 53.8466047,9.9881288 C53.5200351,10.3132804 53.1659602,10.6654192 52.8455029,10.9840417 C51.9871661,10.4586628 51.0965216,10.7280991 50.6843802,11.3435802 C50.2128625,12.0474225 50.2311993,12.0186943 49.8950247,12.5214387 C49.5422596,13.0476882 49.5798064,14.0862582 50.372218,14.6612586 C50.1949623,15.0860886 50.0032991,15.546176 49.8304093,15.9627357 C48.8332367,15.8056009 48.1137357,16.3945301 47.9696609,17.1183952 C47.8046297,17.9506441 47.8111785,17.9188689 47.6919893,18.509104 C47.5688708,19.1315495 48.0028417,20.0774056 48.9541723,20.3033142 L48.9541723,21.7131752 C47.9753365,21.9482246 47.5365632,22.7678504 47.680638,23.4934566 C47.8465424,24.3204822 47.8382471,24.2895775 47.9578729,24.8793773 C48.0831744,25.5013876 48.8450247,26.2108885 49.8116359,26.0563653 C49.988455,26.4825011 50.1801182,26.9434591 50.3534446,27.3617599 C49.5365839,27.9515598 49.4470829,28.8743462 49.8587877,29.4893921 C50.3294322,30.1936696 50.3102222,30.1645061 50.6459602,30.6668153 C50.9982887,31.1935 51.9758147,31.5565207 52.8114488,31.0459413 C53.1367087,31.3710929 53.4907835,31.7241022 53.8108043,32.04316 C53.2838397,32.9002197 53.5553989,33.788184 54.1718646,34.1999557 C54.8778313,34.6683133 54.8498896,34.650467 55.3532783,34.9873711 C55.880243,35.3386393 56.9219478,35.3012055 57.4986837,34.512049 C57.924796,34.6879008 58.3871453,34.8781166 58.8058355,35.0522273 C58.6482264,36.0442227 59.2363137,36.7619939 59.9649831,36.9047646 C60.7979977,37.0710403 60.7639436,37.06277 61.3590164,37.1798594 C61.9837773,37.3069602 62.9320517,36.8725541 63.1586422,35.9223453 C63.6196817,35.9240864 64.1191411,35.9240864 64.5718854,35.9240864 C64.8067711,36.9017177 65.6275611,37.339606 66.3566671,37.1929177 C67.1888085,37.0305595 67.1569374,37.0366534 67.7493906,36.9178229 C68.3732783,36.7946396 69.0831744,36.0346466 68.929058,35.0700736 C69.3547336,34.8942219 69.8175195,34.704006 70.2348999,34.5316365 C70.8290995,35.3447332 71.7546713,35.4344002 72.3724467,35.0230638 C73.0766671,34.5547061 73.0495985,34.5725525 73.5521141,34.2373895 C74.0812617,33.8856859 74.4453781,32.9115369 73.9332575,32.0801585 C74.2593906,31.7550069 74.6125923,31.4037386 74.9334862,31.0846809 C75.7948792,31.6070128 76.6820309,31.3384472 77.0950455,30.7225307 C77.5683095,30.019559 77.5486629,30.0491578 77.8839644,29.5464133 C78.2380392,29.0192933 78.2022388,27.9807233 77.4085174,27.407464 C77.5853365,26.982634 77.7769997,26.521676 77.9498896,26.1051163 C78.9461889,26.2613806 79.6648168,25.6741925 79.8102014,24.9468452 C79.9756692,24.1198196 79.9682471,24.1507243 80.08569,23.5583128 C80.2105548,22.9389142 79.7800767,21.9934933 78.8252534,21.7641026 L78.8252534,21.7641026 Z"/>
    <path fill="#008D44" d="M63.6044158 19.5987862C64.2034179 19.5987862 64.5531268 18.6568476 64.1999252 17.8811846 63.8467235 17.1050864 63.8737921 16.7529476 63.8737921 16.5535909 63.8737921 16.358587 63.858948 8.5292664 63.858948 8.5292664L63.3647277 8.5292664C63.3647277 8.5292664 63.3773888 15.9890372 63.3507568 16.5383563 63.3415884 16.7490301 63.3311102 17.1564491 62.9984283 17.9059954 62.6762245 18.6242018 63.0071601 19.5987862 63.6044158 19.5987862M63.3524595 29.825654C63.3489667 30.3070699 63.3563888 34.0043096 63.3563888 34.0043096L63.8615239 34.0043096C63.8615239 34.0043096 63.8628337 30.6309157 63.86458 29.8217365 64.2169085 29.8217365 64.7080728 29.4922321 64.7831663 29.0264861 63.9977401 29.290699 63.2013992 29.290699 62.4172827 29.0264861 62.5430208 29.5866871 63.0446632 29.825654 63.3524595 29.825654"/>
    <path fill="#008D44" d="M65.4398857 18.7073832C65.4494906 18.2629658 65.4425052 8.52930993 65.4425052 8.52930993L65.8533368 8.52930993C65.8533368 8.52930993 65.8699272 26.4696712 65.8673077 26.6668515 65.8607588 27.2448989 65.7808628 28.3552895 63.8498233 28.6147144 63.8498233 28.236459 63.8563721 27.8168524 63.8498233 27.5844146 64.7278067 27.5108529 65.2504054 26.3704281 65.4940229 25.3553631 64.6461642 25.4833344 64.0620062 25.9590917 63.8498233 26.5414919L63.8498233 25.3553631C64.4536279 25.4093374 65.1430042 24.6689318 65.4202391 23.2407892 64.5488046 23.4305698 64.0017568 24.1444235 63.8550624 24.4935153L63.8550624 23.1807211C64.5859148 23.2651647 65.2368711 22.1835023 65.4735031 20.9455756 64.464106 21.2729036 64.0406133 21.728203 63.8498233 22.1930784 63.8498233 21.5484337 63.8384719 20.9877974 64.5488046 20.1738301 65.197578 19.4329893 65.4294075 19.1935872 65.4398857 18.7073832M61.7730062 18.7073832C61.7638378 18.2629658 61.7690769 8.52930993 61.7690769 8.52930993L61.3599917 8.52930993C61.3599917 8.52930993 61.3420915 26.4696712 61.3455842 26.6668515 61.3538794 27.2448989 61.4329023 28.3552895 63.364815 28.6147144 63.364815 28.236459 63.3578295 27.8168524 63.364815 27.5844146 62.4850852 27.5108529 61.9629231 26.3704281 61.7214886 25.3553631 62.5702204 25.4833344 63.1517588 25.9590917 63.364815 26.5414919L63.364815 25.3553631C62.7601372 25.4093374 62.0716341 24.6689318 61.7939626 23.2407892 62.6653971 23.4305698 63.2111351 24.1444235 63.3595759 24.4935153L63.3595759 23.1807211C62.6278503 23.2651647 61.9751476 22.1835023 61.7420083 20.9455756 62.7492225 21.2729036 63.1731518 21.728203 63.364815 22.1930784 63.364815 21.5484337 63.3757297 20.9877974 62.6653971 20.1738301 62.0183701 19.4329893 61.7843576 19.1935872 61.7730062 18.7073832"/>
    <polygon fill="#FFE400" points=".973 40.766 40.69 40.766 40.69 1.169 .973 1.169"/>
    <path fill="#008D44" d="M1.48222453,40.2588429 L40.1811642,40.2588429 L40.1811642,1.67679359 L1.48222453,1.67679359 L1.48222453,40.2588429 Z M40.6902287,0.661728503 L0.464095634,0.661728503 L0.464095634,41.273908 L41.1992931,41.273908 L41.1992931,0.661728503 L40.6902287,0.661728503 Z"/>
    <polygon fill="#FFE400" points="86.592 40.766 236.297 40.766 236.297 1.169 86.592 1.169"/>
    <path fill="#008D44" d="M87.1011019,40.2588429 L235.787651,40.2588429 L235.787651,1.67679359 L87.1011019,1.67679359 L87.1011019,40.2588429 Z M236.296715,0.661728503 L86.082973,0.661728503 L86.082973,41.273908 L236.80578,41.273908 L236.80578,0.661728503 L236.296715,0.661728503 Z"/>
    <polygon fill="#008D44" points="105.83 29.117 102.419 29.117 102.419 12.838 114.045 12.838 114.045 15.715 105.83 15.715 105.83 19.389 113.021 19.389 113.021 22.269 105.83 22.269"/>
    <path fill="#008D44" d="M117.021954,21.8841626 C117.204012,20.2958382 118.000353,19.3443235 119.501351,19.3443235 C120.526902,19.3443235 121.775988,19.9341233 121.958482,21.8841626 L117.021954,21.8841626 Z M121.82183,25.5792258 C121.56948,26.4406383 120.662245,26.8959376 119.773784,26.8959376 C117.204012,26.8959376 117.021954,24.8544903 116.92896,23.9486796 L125.233347,23.9486796 L125.233347,23.3806436 C125.233347,17.8704768 121.934906,16.7357107 119.544574,16.7357107 C114.247422,16.7357107 113.74578,21.3849003 113.74578,22.8361126 C113.74578,27.8039246 116.360956,29.4353414 119.773784,29.4353414 C121.844969,29.4353414 124.255821,28.4820856 125.098004,25.5792258 L121.82183,25.5792258 L121.82183,25.5792258 Z"/>
    <polygon fill="#008D44" points="126.413 29.117 129.599 29.117 129.599 12.836 126.413 12.836"/>
    <polygon fill="#008D44" points="131.715 29.117 134.897 29.117 134.897 12.836 131.715 12.836"/>
    <path fill="#008D44" d="M139.242225 21.8841626C139.425593 20.2958382 140.22106 19.3443235 141.722931 19.3443235 142.74368 19.3443235 143.997568 19.9341233 144.179626 21.8841626L139.242225 21.8841626zM144.042973 25.5792258C143.79106 26.4406383 142.882079 26.8959376 141.994491 26.8959376 139.425593 26.8959376 139.242225 24.8544903 139.154033 23.9486796L147.454927 23.9486796 147.454927 23.3806436C147.454927 17.8704768 144.156486 16.7357107 141.768337 16.7357107 136.468129 16.7357107 135.96736 21.3849003 135.96736 22.8361126 135.96736 27.8039246 138.583846 29.4353414 141.994491 29.4353414 144.064366 29.4353414 146.476528 28.4820856 147.318274 25.5792258L144.042973 25.5792258 144.042973 25.5792258zM155.619911 20.7277632C155.480638 19.9551472 155.209079 19.1403093 153.481054 19.1403093 151.754339 19.1403093 151.525565 19.7971418 151.525565 20.3207795 151.525565 22.2242442 159.10041 20.8413704 159.10041 25.2855447 159.10041 28.7990976 155.685836 29.4350367 153.799765 29.4350367 151.047499 29.4350367 148.068206 28.4817809 147.975212 25.2637809L151.254006 25.2637809C151.254006 26.2827634 151.890119 27.0318745 153.889703 27.0318745 155.526917 27.0318745 155.915482 26.2388005 155.915482 25.7843717 155.915482 23.7646882 148.409183 25.2855447 148.409183 20.7730319 148.409183 19.0036325 149.522489 16.7358413 153.299869 16.7358413 155.665316 16.7358413 158.48438 17.3265116 158.73673 20.7277632L155.619911 20.7277632"/>
    <polygon fill="#008D44" points="163.669 29.117 160.486 29.117 160.486 12.838 163.669 12.838 163.669 21.634 167.674 17.053 171.585 17.053 167.31 21.725 171.701 29.117 167.879 29.117 164.988 23.948 163.669 25.309"/>
    <path fill="#008D44" d="M175.29547 30.3869432C175.29547 33.5392165 173.836821 33.9683992 171.403266 33.9683992L170.607798 33.9683992 170.607798 31.4294307 171.174929 31.4294307C171.49626 31.4294307 172.109669 31.4294307 172.109669 30.3186048L172.109669 17.0531144 175.29547 17.0531144 175.29547 30.3869432zM172.109669 15.6262776L175.29547 15.6262776 175.29547 12.6772785 172.109669 12.6772785 172.109669 15.6262776zM185.389048 21.1570765C185.640524 21.7490527 185.709505 22.4511539 185.709505 23.0853519 185.709505 24.6284076 185.252832 26.7595219 182.79963 26.7595219 181.865326 26.7595219 181.228778 26.4648396 180.797863 25.9882117L185.389048 21.1570765zM180.227676 25.0584609C179.956116 24.402499 179.889755 23.6977862 179.889755 23.0853519 179.889755 21.5436021 180.344245 19.4133584 182.79963 19.4133584 183.732187 19.4133584 184.367863 19.7076054 184.845929 20.2068676L180.227676 25.0584609zM189.234973 17.1455672L188.438632 16.4186552 186.868653 18.075318C185.730898 17.1682015 184.299318 16.7359718 182.79963 16.7359718 179.547904 16.7359718 176.611397 18.7325857 176.611397 23.0853519 176.611397 24.9226546 177.135306 26.3290333 178.000628 27.3728267L176.339401 29.1174154 177.203414 29.7751184 178.77252 28.1193261C179.863996 29.0042435 181.295576 29.4351673 182.79963 29.4351673 186.051792 29.4351673 188.986116 27.4402946 188.986116 23.0853519 188.986116 21.2497904 188.462208 19.8425411 187.620462 18.8209469L189.234973 17.1455672 189.234973 17.1455672zM193.17053 23.3579222C193.17053 21.4296467 193.694002 19.4809133 195.877827 19.4809133 197.900988 19.4809133 198.582942 21.271206 198.582942 23.1759765 198.582942 24.6041191 198.013191 26.8270769 195.967765 26.8270769 193.942422 26.8270769 193.17053 25.149956 193.17053 23.3579222M193.17053 17.0529403L190.120946 17.0529403 190.120946 33.8123961 193.305873 33.8123961 193.305873 27.5766232 193.351279 27.5766232C193.736351 28.2330203 194.536185 29.4352544 196.763233 29.4352544 200.356809 29.4352544 201.858243 26.2599114 201.858243 22.9496327 201.858243 18.7775063 199.491923 16.7360589 196.833524 16.7360589 194.695104 16.7360589 193.805769 17.848626 193.215936 18.8001407L193.17053 18.8001407 193.17053 17.0529403M205.840603 21.8841626C206.019168 20.2958382 206.815073 19.3443235 208.316507 19.3443235 209.342058 19.3443235 210.591143 19.9341233 210.772765 21.8841626L205.840603 21.8841626zM210.636549 25.5792258C210.388565 26.4406383 209.477401 26.8959376 208.58894 26.8959376 206.019168 26.8959376 205.840603 24.8544903 205.747609 23.9486796L214.048503 23.9486796 214.048503 23.3806436C214.048503 17.8704768 210.750936 16.7357107 208.363659 16.7357107 203.062141 16.7357107 202.560936 21.3849003 202.560936 22.8361126 202.560936 27.8039246 205.176549 29.4353414 208.58894 29.4353414 210.660125 29.4353414 213.070977 28.4820856 213.912723 25.5792258L210.636549 25.5792258 210.636549 25.5792258zM218.712773 17.0529838L220.690965 17.0529838 220.690965 19.3203397 218.712773 19.3203397 218.712773 25.8747351C218.712773 26.5772716 218.735913 26.8497548 220.029967 26.8497548 220.234291 26.8497548 220.463064 26.8271204 220.690965 26.8049213L220.690965 29.2085188C220.188012 29.2311532 219.686807 29.252917 219.18953 29.252917L218.778262 29.252917C216.028179 29.252917 215.52741 28.2121706 215.52741 26.64561L215.52741 19.3203397 213.888886 19.3203397 213.888886 17.0529838 215.52741 17.0529838 215.52741 13.7884091 218.712773 13.7884091 218.712773 17.0529838"/>
  </g>
</svg>
