<svg xmlns="http://www.w3.org/2000/svg" viewBox="0 0 506 258.5"><defs><style>.cls-1{fill:#cad400;}.cls-2{fill:#fff;}</style></defs><title>Asset 1</title><g id="Layer_2" data-name="Layer 2"><g id="Layer_1-2" data-name="Layer 1"><rect class="cls-1" y="175.5" width="506" height="83"/><rect width="506" height="175.5"/><rect width="506" height="175.5"/><path d="M52.4,198.19a14.09,14.09,0,0,0-7.14-1.92c-4,0-6.54,2.7-6.54,6.24,0,2.7,1.08,4.38,7.08,7.86,6.48,3.72,8.64,7.38,8.64,12.18,0,6.66-4.14,11.88-12.18,11.88a20.83,20.83,0,0,1-8.76-1.8v-5.46c2.4,1.44,5.52,2.7,8,2.7,4.74,0,7.44-3.18,7.44-6.6,0-3.24-.84-5.1-6.48-8.52-7.56-4.56-9.24-7.14-9.24-12.54,0-6.9,5.28-10.5,11.64-10.5a21.25,21.25,0,0,1,7.56,1.38Z"/><path d="M73.94,233.64a14.11,14.11,0,0,1-4.26.78c-4.62,0-7.08-1.86-7.08-7.26V207.49H57.74v-4.08H62.6v-6.24l5-1.5v7.74h6.3v4.08h-6.3v18.06c0,3.48.9,4.8,3.18,4.8a7.26,7.26,0,0,0,3.12-.78Z"/><path d="M81.62,220.2c0,7.08,2.76,10.38,8.34,10.38a13.05,13.05,0,0,0,7-2.52l.24,4.56a20.69,20.69,0,0,1-8.58,1.8c-8.1,0-12.3-6.12-12.3-15.72S80.54,203,88.16,203c6.9,0,10.74,5.52,10.74,14.52v2.7Zm12.24-3.84c0-6.36-2-9.54-6-9.54-3.24,0-6.12,2.4-6.24,9.54Z"/><path d="M126.14,235.32c0,8.46-6.36,12-13.08,12a29.31,29.31,0,0,1-8.94-1.86l.24-5.1a16.92,16.92,0,0,0,8.4,2.64c6.18,0,8.58-3.66,8.58-8.94v-4.8h-.12c-2,3.48-4.68,5.16-8,5.16-6.3,0-10.56-5.16-10.56-15.72S106.88,203,113.72,203c3.06,0,5.82,1.92,7.5,4.86h.12l.18-4.44h4.86c-.06,1.8-.24,3.72-.24,5.58Zm-11.76-5c4.62,0,6.72-4,6.72-11.64s-2.1-11.64-6.72-11.64-6.72,4-6.72,11.64S109.76,230.34,114.38,230.34Z"/><path d="M148,192.13h19.5v4.56H153.26V210h13.56v4.56H153.26v14.88h15V234H148Z"/><path d="M174.8,210c0-2.22-.18-4.44-.24-6.6h4.86l.18,4.56h.12a7.86,7.86,0,0,1,7.74-5c5.34,0,8.94,3.06,8.94,9.78V234h-5V214.26c0-4.86-1.8-7-5-7-4,0-6.48,2.76-6.48,8.28V234h-5Z"/><path d="M217.21,233.64a14.11,14.11,0,0,1-4.26.78c-4.62,0-7.08-1.86-7.08-7.26V207.49H201v-4.08h4.86v-6.24l5-1.5v7.74h6.3v4.08h-6.3v18.06c0,3.48.9,4.8,3.18,4.8a7.26,7.26,0,0,0,3.12-.78Z"/><path d="M221.48,210c0-2.22-.18-4.44-.24-6.6h4.86l.18,4.8h.12c1.62-3.72,4.2-5.22,8.7-5.22v5a9.92,9.92,0,0,0-1.92-.18c-3.9,0-6.66,3.36-6.66,10V234h-5Z"/><path d="M243,220.2c0,7.08,2.76,10.38,8.34,10.38a13.06,13.06,0,0,0,7-2.52l.24,4.56a20.68,20.68,0,0,1-8.58,1.8c-8.1,0-12.3-6.12-12.3-15.72S241.93,203,249.55,203c6.9,0,10.74,5.52,10.74,14.52v2.7Zm12.24-3.84c0-6.36-2-9.54-6-9.54-3.24,0-6.12,2.4-6.24,9.54Z"/><path d="M265.39,209c0-1.86-.18-3.78-.24-5.64H270l.18,4.5h.12a8.66,8.66,0,0,1,8-4.92c6.3,0,10.56,5.16,10.56,15.72s-4.26,15.72-10.56,15.72c-3.48,0-5.76-1.38-7.8-4.62h-.12V247h-5Zm11.76,21.3c4.62,0,6.72-4,6.72-11.64s-2.1-11.64-6.72-11.64-6.72,4-6.72,11.64S272.53,230.34,277.15,230.34Z"/><path d="M294.73,210c0-2.22-.18-4.44-.24-6.6h4.86l.18,4.8h.12c1.62-3.72,4.2-5.22,8.7-5.22v5a9.92,9.92,0,0,0-1.92-.18c-3.9,0-6.66,3.36-6.66,10V234h-5Z"/><path d="M316.27,220.2c0,7.08,2.76,10.38,8.34,10.38a13.05,13.05,0,0,0,7-2.52l.24,4.56a20.69,20.69,0,0,1-8.58,1.8c-8.1,0-12.3-6.12-12.3-15.72S315.19,203,322.81,203c6.9,0,10.74,5.52,10.74,14.52v2.7Zm12.24-3.84c0-6.36-2-9.54-6-9.54-3.24,0-6.12,2.4-6.24,9.54Z"/><path d="M339.13,210c0-2.22-.18-4.44-.24-6.6h4.86l.18,4.56h.12a7.86,7.86,0,0,1,7.74-5c5.34,0,8.94,3.06,8.94,9.78V234h-5V214.26c0-4.86-1.8-7-5-7-4,0-6.48,2.76-6.48,8.28V234h-5Z"/><path d="M365.77,233.4l3.3-4.2c-1.68-2.58-2.52-6.18-2.52-10.5,0-9.6,4.2-15.72,12.3-15.72a11.06,11.06,0,0,1,8.34,3.3l2.94-3.66,1.8,1.38-3.36,4.14c1.74,2.58,2.58,6.24,2.58,10.56,0,9.6-4.2,15.72-12.3,15.72a10.7,10.7,0,0,1-8.34-3.36l-2.94,3.72Zm18.42-23.34a5.84,5.84,0,0,0-5.34-3c-4.8,0-7,4-7,11.64a22.21,22.21,0,0,0,.72,6.12Zm-10.68,17.22a5.78,5.78,0,0,0,5.34,3.06c4.8,0,7-4,7-11.64a23,23,0,0,0-.72-6.18Z"/><path d="M397,210c0-2.22-.18-4.44-.24-6.6h4.86l.18,4.8h.12c1.62-3.72,4.2-5.22,8.7-5.22v5a9.92,9.92,0,0,0-1.92-.18c-3.9,0-6.66,3.36-6.66,10V234h-5Z"/><path d="M430.33,205.5A16.3,16.3,0,0,1,439,203a11.61,11.61,0,0,1,8.16,2.88c1.32,1.32,2.64,3.18,2.64,7.5v16A46.09,46.09,0,0,0,450,234h-4.56l-.3-4.14H445c-1.38,2.34-3.9,4.56-8.58,4.56-5,0-8.82-2.94-8.82-8.82s3.9-10.32,14.4-10.32H445V213.9c0-2.28-.18-3.6-1.14-4.92s-3-1.92-5.1-1.92a10.84,10.84,0,0,0-7.86,3.18ZM445,219a30.39,30.39,0,0,0-3.54-.12c-5.94,0-8.76,2.82-8.76,6.36,0,3.24,1.68,5.34,5.16,5.34,4.38,0,7.14-3.54,7.14-7.74Z"/><path d="M455.59,228.06a14,14,0,0,0,7.2,2.28c3.84,0,5.82-2,5.82-4.32,0-2.1-1.08-3.54-3.9-4.8l-3.36-1.5c-4.38-2-6-4-6-7.86,0-5,3.9-8.88,9.84-8.88a18.5,18.5,0,0,1,6.48,1.08l-.24,4.32a14.77,14.77,0,0,0-6-1.32c-3.3,0-5,1.8-5,4.2s1.8,3.84,5.16,5.16l1.8.72c3.72,1.5,6.06,4,6.06,7.8,0,5.28-2.82,9.48-9.84,9.48a18.34,18.34,0,0,1-8.28-1.8Z"/><path class="cls-2" d="M253.29,53V28S71.67,26.95,62.12,28c-6,.67-31.67,7.67-31,35s22.67,34.83,36.5,34.33,160.5,0,160.5,0v12.5H32.29v27.83s180.47,1.47,191.17,0c9.5-1.3,31.17-9.33,31.33-36.5-1.5-27.5-22.5-33.33-39.33-33.17-14.84.15-158.33,0-158.33,0V53Z"/><path class="cls-2" d="M477.44,52.93V27.35s-143.71.37-149.75,0c-11.11-.67-61.25,7.5-58.22,59,0,45.26,46.78,52.41,64.95,51.82,11.77-.38,143,0,143,0V111.57H300.77V95.75H477.44V68.5h-177l0-15.56Z"/></g></g></svg>